<svg width="410" height="409" xmlns="http://www.w3.org/2000/svg" xmlns:xlink="http://www.w3.org/1999/xlink" overflow="hidden"><defs><clipPath id="clip0"><path d="M231 116 641 116 641 525 231 525Z" fill-rule="evenodd" clip-rule="evenodd"/></clipPath><linearGradient x1="402" y1="369" x2="402" y2="445" gradientUnits="userSpaceOnUse" spreadMethod="reflect" id="fill1"><stop offset="0" stop-color="#1D58AC"/><stop offset="0.01" stop-color="#1E59AD"/><stop offset="0.02" stop-color="#205BAE"/><stop offset="0.03" stop-color="#225CAF"/><stop offset="0.04" stop-color="#245EB0"/><stop offset="0.05" stop-color="#265FB1"/><stop offset="0.06" stop-color="#2861B2"/><stop offset="0.07" stop-color="#2962B3"/><stop offset="0.08" stop-color="#2B64B4"/><stop offset="0.09" stop-color="#2D65B6"/><stop offset="0.1" stop-color="#2F67B7"/><stop offset="0.11" stop-color="#3068B8"/><stop offset="0.12" stop-color="#3269B9"/><stop offset="0.13" stop-color="#346BBA"/><stop offset="0.14" stop-color="#356CBB"/><stop offset="0.15" stop-color="#376EBC"/><stop offset="0.16" stop-color="#396FBD"/><stop offset="0.17" stop-color="#3A70BE"/><stop offset="0.18" stop-color="#3C72BF"/><stop offset="0.19" stop-color="#3D73C0"/><stop offset="0.2" stop-color="#3F74C1"/><stop offset="0.21" stop-color="#4176C2"/><stop offset="0.22" stop-color="#4277C3"/><stop offset="0.23" stop-color="#4478C4"/><stop offset="0.24" stop-color="#4579C4"/><stop offset="0.25" stop-color="#477BC5"/><stop offset="0.26" stop-color="#487CC6"/><stop offset="0.27" stop-color="#4A7DC7"/><stop offset="0.28" stop-color="#4B7EC8"/><stop offset="0.29" stop-color="#4C7FC9"/><stop offset="0.3" stop-color="#4E80CA"/><stop offset="0.31" stop-color="#4F82CB"/><stop offset="0.32" stop-color="#5083CB"/><stop offset="0.33" stop-color="#5284CC"/><stop offset="0.34" stop-color="#5385CD"/><stop offset="0.35" stop-color="#5486CE"/><stop offset="0.36" stop-color="#5687CF"/><stop offset="0.37" stop-color="#5788CF"/><stop offset="0.38" stop-color="#5889D0"/><stop offset="0.39" stop-color="#5A8AD1"/><stop offset="0.4" stop-color="#5B8BD2"/><stop offset="0.41" stop-color="#5C8CD2"/><stop offset="0.42" stop-color="#5D8DD3"/><stop offset="0.43" stop-color="#5E8ED4"/><stop offset="0.44" stop-color="#5F8FD5"/><stop offset="0.45" stop-color="#6190D5"/><stop offset="0.46" stop-color="#6291D6"/><stop offset="0.47" stop-color="#6392D7"/><stop offset="0.48" stop-color="#6493D7"/><stop offset="0.49" stop-color="#6594D8"/><stop offset="0.5" stop-color="#6695D9"/><stop offset="0.51" stop-color="#6795D9"/><stop offset="0.52" stop-color="#6896DA"/><stop offset="0.53" stop-color="#6997DA"/><stop offset="0.54" stop-color="#6A98DB"/><stop offset="0.55" stop-color="#6B99DC"/><stop offset="0.56" stop-color="#6C99DC"/><stop offset="0.57" stop-color="#6D9ADD"/><stop offset="0.58" stop-color="#6E9BDD"/><stop offset="0.59" stop-color="#6F9CDE"/><stop offset="0.6" stop-color="#6F9CDE"/><stop offset="0.61" stop-color="#709DDF"/><stop offset="0.62" stop-color="#719EDF"/><stop offset="0.63" stop-color="#729EE0"/><stop offset="0.64" stop-color="#739FE0"/><stop offset="0.65" stop-color="#73A0E1"/><stop offset="0.66" stop-color="#74A0E1"/><stop offset="0.67" stop-color="#75A1E2"/><stop offset="0.68" stop-color="#76A2E2"/><stop offset="0.69" stop-color="#76A2E3"/><stop offset="0.7" stop-color="#77A3E3"/><stop offset="0.71" stop-color="#78A3E3"/><stop offset="0.72" stop-color="#78A4E4"/><stop offset="0.73" stop-color="#79A4E4"/><stop offset="0.74" stop-color="#79A5E5"/><stop offset="0.75" stop-color="#7AA5E5"/><stop offset="0.76" stop-color="#7BA6E5"/><stop offset="0.77" stop-color="#7BA6E6"/><stop offset="0.78" stop-color="#7CA7E6"/><stop offset="0.79" stop-color="#7CA7E6"/><stop offset="0.8" stop-color="#7DA7E6"/><stop offset="0.81" stop-color="#7DA8E7"/><stop offset="0.82" stop-color="#7DA8E7"/><stop offset="0.83" stop-color="#7EA8E7"/><stop offset="0.84" stop-color="#7EA9E8"/><stop offset="0.85" stop-color="#7FA9E8"/><stop offset="0.86" stop-color="#7FA9E8"/><stop offset="0.87" stop-color="#7FAAE8"/><stop offset="0.88" stop-color="#80AAE8"/><stop offset="0.89" stop-color="#80AAE9"/><stop offset="0.9" stop-color="#80AAE9"/><stop offset="0.91" stop-color="#80ABE9"/><stop offset="0.92" stop-color="#81ABE9"/><stop offset="0.93" stop-color="#81ABE9"/><stop offset="0.94" stop-color="#81ABE9"/><stop offset="0.95" stop-color="#81ABE9"/><stop offset="0.96" stop-color="#81ABE9"/><stop offset="0.97" stop-color="#81ABE9"/><stop offset="0.98" stop-color="#81ABE9"/><stop offset="0.99" stop-color="#81ABE9"/><stop offset="1" stop-color="#82ACEA"/></linearGradient></defs><g clip-path="url(#clip0)" transform="translate(-231 -116)"><path d="M246.5 301.5C246.5 274.99 267.99 253.5 294.5 253.5 321.01 253.5 342.5 274.99 342.5 301.5 342.5 328.01 321.01 349.5 294.5 349.5 267.99 349.5 246.5 328.01 246.5 301.5Z" stroke="#1D58AC" stroke-width="13.3333" stroke-miterlimit="8" fill="none" fill-rule="evenodd"/><path d="M344.5 407.5C344.5 375.468 370.468 349.5 402.5 349.5 434.533 349.5 460.5 375.468 460.5 407.5 460.5 439.533 434.533 465.5 402.5 465.5 370.468 465.5 344.5 439.533 344.5 407.5Z" stroke="#1D58AC" stroke-width="13.3333" stroke-miterlimit="8" fill="none" fill-rule="evenodd"/><path d="M514.5 254C514.5 229.976 533.752 210.5 557.5 210.5 581.248 210.5 600.5 229.976 600.5 254 600.5 278.024 581.248 297.5 557.5 297.5 533.752 297.5 514.5 278.024 514.5 254Z" stroke="#1D58AC" stroke-width="13.3333" stroke-miterlimit="8" fill="none" fill-rule="evenodd"/><path d="M490.5 254C490.5 216.721 520.497 186.5 557.5 186.5 594.503 186.5 624.5 216.721 624.5 254 624.5 291.279 594.503 321.5 557.5 321.5 520.497 321.5 490.5 291.279 490.5 254Z" stroke="#1D58AC" stroke-width="13.3333" stroke-miterlimit="8" fill="none" fill-rule="evenodd"/><path d="M364 407C364 386.013 381.013 369 402 369 422.987 369 440 386.013 440 407 440 427.987 422.987 445 402 445 381.013 445 364 427.987 364 407Z" fill="url(#fill1)" fill-rule="evenodd"/><path d="M328.5 335.5 361.365 366.912" stroke="#1D58AC" stroke-width="13.3333" stroke-miterlimit="8" fill="none" fill-rule="evenodd"/><path d="M0 0 66.768 65.3531" stroke="#1D58AC" stroke-width="13.3333" stroke-miterlimit="8" fill="none" fill-rule="evenodd" transform="matrix(1 0 0 -1 443.5 366.853)"/></g></svg>