<?xml version='1.0' encoding='iso-8859-1'?>
<svg version="1.1" xmlns="http://www.w3.org/2000/svg" viewBox="0 0 470 470" xmlns:xlink="http://www.w3.org/1999/xlink" enable-background="new 0 0 470 470">
  <g>
    <path d="M462.5,445H292.853v-15H462.5c4.143,0,7.5-3.357,7.5-7.5s-3.357-7.5-7.5-7.5H292.755c-0.556-3.593-3.653-6.346-7.402-6.346   h-19.68v-22.5c0-4.143-3.357-7.5-7.5-7.5s-7.5,3.357-7.5,7.5v30c0,4.143,3.357,7.5,7.5,7.5h19.68V455h-85.705v-31.346h36.025   c4.143,0,7.5-3.357,7.5-7.5s-3.357-7.5-7.5-7.5h-8.846v-22.5c0-4.143-3.357-7.5-7.5-7.5s-7.5,3.357-7.5,7.5v22.5h-19.68   c-3.749,0-6.846,2.753-7.402,6.346H7.5c-4.143,0-7.5,3.357-7.5,7.5s3.357,7.5,7.5,7.5h169.647v15H7.5c-4.143,0-7.5,3.357-7.5,7.5   s3.357,7.5,7.5,7.5h169.647v2.5c0,4.143,3.357,7.5,7.5,7.5h100.705c4.143,0,7.5-3.357,7.5-7.5V460H462.5c4.143,0,7.5-3.357,7.5-7.5   S466.643,445,462.5,445z"/>
    <path style="fill: #2e85ff" d="m103.212,363.75h268.788c4.143,0 7.5-3.357 7.5-7.5v-268.75c0-0.251-0.013-0.501-0.038-0.749-0.018-0.184-0.05-0.364-0.081-0.544-0.011-0.061-0.016-0.123-0.028-0.183-0.043-0.218-0.099-0.431-0.161-0.642-0.007-0.022-0.011-0.045-0.017-0.067-0.066-0.216-0.143-0.426-0.227-0.633-0.007-0.018-0.013-0.038-0.02-0.056-0.081-0.195-0.173-0.385-0.27-0.572-0.016-0.031-0.028-0.063-0.045-0.093-0.091-0.169-0.192-0.332-0.295-0.493-0.029-0.046-0.054-0.094-0.084-0.139-0.099-0.148-0.208-0.288-0.317-0.428-0.042-0.053-0.079-0.11-0.122-0.162-0.12-0.146-0.25-0.284-0.381-0.421-0.038-0.04-0.071-0.083-0.11-0.122l-80-80c-0.039-0.039-0.082-0.072-0.122-0.11-0.137-0.131-0.275-0.261-0.421-0.381-0.052-0.043-0.109-0.08-0.162-0.121-0.14-0.109-0.281-0.218-0.428-0.317-0.045-0.03-0.093-0.055-0.138-0.084-0.161-0.103-0.324-0.204-0.493-0.295-0.03-0.016-0.063-0.029-0.093-0.045-0.187-0.097-0.376-0.189-0.572-0.27-0.018-0.008-0.038-0.013-0.056-0.02-0.207-0.084-0.417-0.161-0.633-0.227-0.022-0.007-0.045-0.011-0.067-0.017-0.211-0.062-0.424-0.118-0.642-0.161-0.06-0.012-0.122-0.017-0.183-0.028-0.18-0.031-0.36-0.063-0.544-0.081-0.249-0.026-0.499-0.039-0.75-0.039h-188.788c-4.143,0-7.5,3.357-7.5,7.5v348.75c0,4.143 3.357,7.5 7.5,7.5zm196.288-338.144l54.394,54.394h-54.394v-54.394zm-188.788-10.606h173.788v72.5c0,4.143 3.357,7.5 7.5,7.5h72.5v253.75h-253.788v-333.75z"/>
    <path d="m318.25,133.75h-161.288c-4.143,0-7.5,3.357-7.5,7.5s3.357,7.5 7.5,7.5h161.288c4.143,0 7.5-3.357 7.5-7.5s-3.357-7.5-7.5-7.5z"/>
    <path d="m318.25,187.5h-161.288c-4.143,0-7.5,3.357-7.5,7.5s3.357,7.5 7.5,7.5h161.288c4.143,0 7.5-3.357 7.5-7.5s-3.357-7.5-7.5-7.5z"/>
    <path d="m318.25,241.25h-161.288c-4.143,0-7.5,3.357-7.5,7.5s3.357,7.5 7.5,7.5h161.288c4.143,0 7.5-3.357 7.5-7.5s-3.357-7.5-7.5-7.5z"/>
    <path d="m237.605,295h-80.644c-4.143,0-7.5,3.357-7.5,7.5s3.357,7.5 7.5,7.5h80.644c4.143,0 7.5-3.357 7.5-7.5s-3.357-7.5-7.5-7.5z"/>
  </g>
</svg>
